<?xml version="1.0" encoding="UTF-8" standalone="no"?>
<!DOCTYPE svg PUBLIC "-//W3C//DTD SVG 1.1//EN" "http://www.w3.org/Graphics/SVG/1.1/DTD/svg11.dtd">
<svg width="100%" height="100%" viewBox="0 0 200 200" version="1.1" xmlns="http://www.w3.org/2000/svg" xmlns:xlink="http://www.w3.org/1999/xlink" xml:space="preserve" xmlns:serif="http://www.serif.com/" style="fill-rule:evenodd;clip-rule:evenodd;stroke-linejoin:round;stroke-miterlimit:2;">
    <g transform="matrix(1.41485,0,0,1.40741,-40.778,-42.4444)">
        <g>
            <g id="Network">
                <path d="M96,76L96,96L54,96L54,124L62,124L62,104L137,104L137,124L145,124L145,96L104,96L104,76L96,76Z" style="fill:rgb(69,93,160);"/>
                <path d="M96,74.224C95.024,74.224 94.233,75.019 94.233,76L94.233,94.224C94.233,94.224 54,94.224 54,94.224C53.024,94.224 52.233,95.019 52.233,96L52.233,124C52.233,124.981 53.024,125.776 54,125.776L62,125.776C62.976,125.776 63.767,124.981 63.767,124L63.767,105.776C63.767,105.776 135.233,105.776 135.233,105.776C135.233,105.776 135.233,124 135.233,124C135.233,124.981 136.024,125.776 137,125.776L145,125.776C145.976,125.776 146.767,124.981 146.767,124L146.767,96C146.767,95.019 145.976,94.224 145,94.224L105.767,94.224C105.767,94.224 105.767,76 105.767,76C105.767,75.019 104.976,74.224 104,74.224L96,74.224ZM96,76L96,96L54,96L54,124L62,124L62,104L137,104L137,124L145,124L145,96L104,96L104,76L96,76Z" style="fill:rgb(0,1,3);"/>
            </g>
            <path id="Network1" serif:id="Network" d="M100,76L100,104L137,104L137,124L145,124L145,96L104,96L104,76L100,76Z" style="fill:rgb(8,7,0);fill-opacity:0.2;"/>
            <g id="Square">
                <g id="Border" transform="matrix(1.08333,0,0,1.02381,-2.66667,-2.97619)">
                    <path d="M81.631,125C81.631,124.042 80.901,123.265 80,123.265L32,123.265C31.099,123.265 30.369,124.042 30.369,125L30.369,167C30.369,167.958 31.099,168.735 32,168.735L80,168.735C80.901,168.735 81.631,167.958 81.631,167L81.631,125ZM80,125L32,125L32,167L80,167L80,125Z"/>
                </g>
                <g id="Top" transform="matrix(1.08333,0,0,0.428571,-2.66667,71.4286)">
                    <rect x="32" y="125" width="48" height="42" style="fill:rgb(254,79,40);"/>
                </g>
                <g id="Bottom" transform="matrix(1.08333,0,0,0.595238,-2.66667,68.5952)">
                    <rect x="32" y="125" width="48" height="42" style="fill:rgb(245,251,255);"/>
                </g>
                <g id="Shadow" transform="matrix(2.73684,0,0,3.18519,-65.1579,-292.259)">
                    <rect x="45" y="131" width="9.5" height="13.5" style="fill-opacity:0.15;"/>
                </g>
            </g>
            <g id="Square1" serif:id="Square" transform="matrix(1,0,0,0.976744,42,-89.093)">
                <g id="Border1" serif:id="Border" transform="matrix(1.08333,0,0,1.02381,-2.66667,-2.97619)">
                    <path d="M81.631,125C81.631,124.019 80.901,123.224 80,123.224L32,123.224C31.099,123.224 30.369,124.019 30.369,125L30.369,167C30.369,167.981 31.099,168.776 32,168.776L80,168.776C80.901,168.776 81.631,167.981 81.631,167L81.631,125ZM80,125L32,125L32,167L80,167L80,125Z"/>
                </g>
                <g id="Top1" serif:id="Top" transform="matrix(1.08333,0,0,0.428571,-2.66667,71.4286)">
                    <rect x="32" y="125" width="48" height="42" style="fill:rgb(80,197,255);"/>
                </g>
                <g id="Bottom1" serif:id="Bottom" transform="matrix(1.08333,0,0,0.607143,-2.66667,66.6071)">
                    <rect x="32" y="125" width="48" height="42" style="fill:rgb(245,251,255);"/>
                </g>
                <g id="Shadow1" serif:id="Shadow" transform="matrix(2.73684,0,0,3.18519,-65.1579,-292.259)">
                    <rect x="45" y="131" width="9.5" height="13.5" style="fill-opacity:0.15;"/>
                </g>
            </g>
            <g id="Square2" serif:id="Square" transform="matrix(1,0,0,1,83,7.10543e-14)">
                <g id="Border2" serif:id="Border" transform="matrix(1.08333,0,0,1.02381,-2.66667,-2.97619)">
                    <path d="M81.957,125C81.957,123.85 81.081,122.918 80,122.918L32,122.918C30.919,122.918 30.043,123.85 30.043,125L30.043,167C30.043,168.15 30.919,169.082 32,169.082L80,169.082C81.081,169.082 81.957,168.15 81.957,167L81.957,125ZM80,125L32,125L32,167L80,167L80,125Z"/>
                </g>
                <g id="Top2" serif:id="Top" transform="matrix(1.08333,0,0,0.428571,-2.66667,71.4286)">
                    <rect x="32" y="125" width="48" height="42" style="fill:rgb(255,217,44);"/>
                </g>
                <g id="Bottom2" serif:id="Bottom" transform="matrix(1.08333,0,0,0.595238,-2.66667,68.5952)">
                    <rect x="32" y="125" width="48" height="42" style="fill:rgb(245,251,255);"/>
                </g>
                <g id="Shadow2" serif:id="Shadow" transform="matrix(2.73684,0,0,3.18519,-65.1579,-292.259)">
                    <rect x="45" y="131" width="9.5" height="13.5" style="fill-opacity:0.15;"/>
                </g>
            </g>
        </g>
    </g>
</svg>
