<?xml version="1.0" encoding="UTF-8" standalone="no"?>
<!DOCTYPE svg PUBLIC "-//W3C//DTD SVG 1.1//EN" "http://www.w3.org/Graphics/SVG/1.1/DTD/svg11.dtd">
<svg width="100%" height="100%" viewBox="0 0 12 16" version="1.1" xmlns="http://www.w3.org/2000/svg" xmlns:xlink="http://www.w3.org/1999/xlink" xml:space="preserve" xmlns:serif="http://www.serif.com/" style="fill-rule:evenodd;clip-rule:evenodd;stroke-linejoin:round;stroke-miterlimit:2;">
    <g transform="matrix(1,0,0,1,-2.47371,4.18285e-15)">
        <g transform="matrix(1.82185,0,0,2.74286,0,-1.77636e-15)">
            <g transform="matrix(0.466664,0,0,0.466664,-1.808,-0.0252354)">
                <g transform="matrix(0.548893,0,0,0.364583,0,0)">
                    <path d="M33.567,8.128L33.544,8.114L33.489,8.098C33.511,8.116 33.539,8.127 33.567,8.128Z" style="fill-rule:nonzero;stroke:white;stroke-width:1.07px;"/>
                </g>
                <g transform="matrix(0.548893,0,0,0.364583,0,0)">
                    <path d="M33.911,10.578L33.885,10.586L33.911,10.578Z" style="fill-rule:nonzero;stroke:white;stroke-width:1.07px;"/>
                </g>
                <g transform="matrix(0.548893,0,0,0.364583,0,0)">
                    <path d="M33.573,8.111C33.571,8.111 33.568,8.11 33.566,8.109C33.565,8.111 33.565,8.113 33.566,8.115C33.569,8.114 33.571,8.113 33.573,8.111Z" style="fill-rule:nonzero;stroke:white;stroke-width:1.07px;"/>
                </g>
                <g transform="matrix(0.548893,0,0,0.364583,0,0)">
                    <path d="M33.888,10.565L33.927,10.542L33.942,10.534L33.956,10.52C33.93,10.53 33.907,10.546 33.888,10.565Z" style="fill-rule:nonzero;stroke:white;stroke-width:1.07px;"/>
                </g>
                <g transform="matrix(0.548893,0,0,0.364583,0,0)">
                    <path d="M33.633,8.176L33.595,8.139L33.568,8.125C33.582,8.15 33.606,8.168 33.633,8.176Z" style="fill-rule:nonzero;stroke:white;stroke-width:1.07px;"/>
                </g>
                <g transform="matrix(0.548893,0,0,0.364583,0,0)">
                    <path d="M23.884,31.945C23.853,31.959 23.825,31.98 23.805,32.006L23.829,31.991C23.846,31.975 23.869,31.957 23.884,31.945Z" style="fill-rule:nonzero;stroke:white;stroke-width:1.07px;"/>
                </g>
                <g transform="matrix(0.548893,0,0,0.364583,0,0)">
                    <path d="M29.55,30.831C29.55,30.796 29.533,30.802 29.537,30.927C29.537,30.917 29.541,30.907 29.543,30.897C29.545,30.875 29.547,30.853 29.55,30.831Z" style="fill-rule:nonzero;stroke:white;stroke-width:1.07px;"/>
                </g>
                <g transform="matrix(0.548893,0,0,0.364583,0,0)">
                    <path d="M28.962,31.945C28.931,31.959 28.904,31.98 28.883,32.006L28.907,31.991C28.924,31.975 28.947,31.957 28.962,31.945Z" style="fill-rule:nonzero;stroke:white;stroke-width:1.07px;"/>
                </g>
                <g transform="matrix(0.548893,0,0,0.364583,0,0)">
                    <path d="M19.898,32.215C19.875,32.194 19.846,32.181 19.815,32.176C19.84,32.188 19.865,32.2 19.882,32.209L19.898,32.215Z" style="fill-rule:nonzero;stroke:white;stroke-width:1.07px;"/>
                </g>
                <g transform="matrix(0.548893,0,0,0.364583,0,0)">
                    <path d="M19.005,31.353C19.002,31.317 18.991,31.282 18.973,31.25C18.985,31.283 18.996,31.317 19.004,31.352L19.005,31.353Z" style="fill-rule:nonzero;stroke:white;stroke-width:1.07px;"/>
                </g>
                <g transform="matrix(0.548893,0,0,0.364583,0,0)">
                    <path d="M25.028,15.981C23.796,16.509 22.399,17.106 20.587,17.106C19.83,17.105 19.076,17.001 18.346,16.797L19.598,29.659C19.643,30.197 19.888,30.698 20.285,31.063C20.681,31.429 21.201,31.632 21.741,31.632C21.741,31.632 23.517,31.724 24.109,31.724C24.747,31.724 26.66,31.632 26.66,31.632C27.2,31.632 27.719,31.429 28.116,31.063C28.513,30.698 28.757,30.197 28.802,29.659L30.144,15.446C29.544,15.242 28.939,15.105 28.257,15.105C27.077,15.105 26.126,15.511 25.028,15.981Z" style="fill:rgb(255,221,0);fill-rule:nonzero;"/>
                </g>
                <g transform="matrix(0.548893,0,0,0.364583,0,0)">
                    <path d="M14.466,10.504L14.487,10.524L14.501,10.532C14.49,10.522 14.478,10.512 14.466,10.504Z" style="fill-rule:nonzero;stroke:white;stroke-width:1.07px;"/>
                </g>
                <g transform="matrix(0.548893,0,0,0.364583,0,0)">
                    <path d="M35.938,9.312L35.749,8.361C35.58,7.507 35.195,6.7 34.319,6.392C34.038,6.293 33.719,6.251 33.504,6.046C33.289,5.842 33.225,5.525 33.175,5.23C33.083,4.69 32.996,4.15 32.902,3.61C32.82,3.147 32.755,2.626 32.543,2.201C32.266,1.63 31.692,1.296 31.121,1.075C30.828,0.966 30.53,0.873 30.227,0.798C28.8,0.422 27.3,0.283 25.832,0.204C24.071,0.107 22.304,0.137 20.547,0.292C19.239,0.411 17.861,0.555 16.618,1.008C16.163,1.173 15.695,1.372 15.35,1.723C14.926,2.154 14.788,2.821 15.097,3.359C15.317,3.741 15.69,4.011 16.085,4.189C16.6,4.419 17.138,4.594 17.689,4.711C19.225,5.051 20.816,5.184 22.385,5.241C24.124,5.311 25.867,5.254 27.597,5.071C28.025,5.024 28.453,4.967 28.879,4.901C29.382,4.824 29.704,4.168 29.556,3.71C29.379,3.163 28.903,2.951 28.364,3.033C28.285,3.046 28.206,3.057 28.127,3.069L28.07,3.077C27.887,3.1 27.705,3.122 27.523,3.142C27.146,3.182 26.768,3.216 26.39,3.241C25.542,3.3 24.692,3.328 23.842,3.329C23.008,3.329 22.172,3.305 21.339,3.251C20.959,3.226 20.58,3.194 20.202,3.156C20.03,3.138 19.858,3.119 19.687,3.097L19.523,3.077L19.488,3.072L19.318,3.047C18.973,2.995 18.627,2.935 18.284,2.863C18.25,2.855 18.219,2.836 18.197,2.808C18.175,2.781 18.163,2.746 18.163,2.711C18.163,2.676 18.175,2.641 18.197,2.614C18.219,2.586 18.25,2.567 18.284,2.559L18.291,2.559C18.587,2.496 18.886,2.442 19.186,2.395C19.286,2.379 19.386,2.364 19.487,2.349L19.49,2.349C19.677,2.336 19.866,2.303 20.053,2.281C21.678,2.111 23.313,2.054 24.946,2.108C25.739,2.131 26.531,2.178 27.321,2.258C27.49,2.275 27.659,2.294 27.828,2.315C27.893,2.323 27.958,2.332 28.023,2.34L28.154,2.358C28.536,2.415 28.915,2.484 29.293,2.566C29.853,2.687 30.572,2.727 30.822,3.341C30.901,3.535 30.937,3.751 30.981,3.956L31.036,4.216C31.038,4.221 31.039,4.226 31.04,4.231C31.172,4.846 31.304,5.461 31.436,6.076C31.446,6.121 31.446,6.168 31.436,6.214C31.427,6.259 31.409,6.302 31.382,6.34C31.355,6.378 31.321,6.41 31.282,6.435C31.242,6.459 31.198,6.475 31.152,6.481L31.148,6.481L31.067,6.492L30.988,6.503C30.735,6.536 30.482,6.566 30.228,6.595C29.729,6.652 29.229,6.701 28.729,6.743C27.734,6.825 26.737,6.88 25.739,6.905C25.23,6.919 24.721,6.925 24.212,6.924C22.188,6.923 20.165,6.805 18.154,6.572C17.937,6.546 17.719,6.518 17.501,6.49C17.67,6.512 17.378,6.474 17.319,6.465C17.181,6.446 17.043,6.426 16.904,6.405C16.44,6.335 15.978,6.25 15.515,6.174C14.954,6.082 14.418,6.128 13.911,6.405C13.495,6.633 13.158,6.982 12.946,7.406C12.727,7.858 12.662,8.35 12.564,8.836C12.467,9.321 12.314,9.844 12.372,10.343C12.496,11.419 13.248,12.293 14.331,12.489C15.348,12.673 16.372,12.823 17.398,12.95C21.43,13.444 25.502,13.503 29.547,13.126C29.876,13.096 30.205,13.062 30.533,13.026C30.636,13.015 30.74,13.026 30.837,13.06C30.934,13.094 31.023,13.15 31.096,13.223C31.169,13.295 31.226,13.383 31.26,13.48C31.295,13.578 31.308,13.681 31.297,13.784L31.195,14.779C30.988,16.791 30.782,18.802 30.576,20.813C30.36,22.925 30.144,25.037 29.926,27.148C29.864,27.743 29.803,28.337 29.741,28.932C29.682,29.517 29.674,30.121 29.563,30.699C29.388,31.609 28.772,32.167 27.873,32.372C27.05,32.559 26.209,32.658 25.365,32.665C24.429,32.67 23.494,32.629 22.558,32.634C21.559,32.639 20.335,32.547 19.564,31.804C18.886,31.151 18.793,30.128 18.7,29.244C18.577,28.073 18.455,26.903 18.335,25.732L17.657,19.225L17.218,15.014C17.211,14.944 17.203,14.875 17.196,14.805C17.144,14.303 16.788,13.811 16.228,13.837C15.748,13.858 15.203,14.266 15.259,14.805L15.584,17.927L16.257,24.384C16.448,26.219 16.639,28.053 16.83,29.888C16.867,30.24 16.901,30.592 16.94,30.943C17.151,32.864 18.618,33.899 20.434,34.191C21.495,34.361 22.582,34.396 23.658,34.414C25.038,34.436 26.432,34.489 27.79,34.239C29.801,33.87 31.31,32.527 31.526,30.443C31.587,29.842 31.649,29.24 31.71,28.639C31.915,26.648 32.119,24.658 32.323,22.668L32.99,16.164L33.296,13.184C33.311,13.036 33.373,12.897 33.474,12.787C33.574,12.678 33.707,12.603 33.853,12.575C34.428,12.463 34.978,12.272 35.387,11.834C36.038,11.137 36.168,10.228 35.938,9.312ZM14.301,9.955C14.31,9.951 14.294,10.026 14.287,10.061C14.285,10.008 14.288,9.961 14.301,9.955ZM14.357,10.387C14.361,10.384 14.375,10.402 14.39,10.424C14.368,10.404 14.354,10.389 14.356,10.387L14.357,10.387ZM14.412,10.459C14.432,10.493 14.442,10.514 14.412,10.459ZM14.521,10.549L14.525,10.549C14.525,10.552 14.53,10.555 14.532,10.559C14.529,10.555 14.525,10.552 14.521,10.549ZM33.826,10.415C33.619,10.612 33.308,10.703 33,10.749C29.55,11.261 26.05,11.52 22.562,11.405C20.066,11.32 17.596,11.043 15.124,10.694C14.882,10.66 14.62,10.615 14.453,10.437C14.14,10.1 14.294,9.422 14.375,9.015C14.45,8.643 14.593,8.146 15.036,8.093C15.728,8.012 16.532,8.304 17.216,8.407C18.04,8.533 18.867,8.634 19.698,8.709C23.241,9.032 26.844,8.982 30.371,8.51C31.014,8.423 31.655,8.323 32.293,8.209C32.862,8.107 33.493,7.915 33.836,8.504C34.072,8.905 34.103,9.442 34.067,9.896C34.056,10.093 33.969,10.279 33.826,10.415Z" style="fill-rule:nonzero;"/>
                </g>
            </g>
        </g>
    </g>
</svg>
