<?xml version="1.0" encoding="UTF-8" standalone="no"?>
<!DOCTYPE svg PUBLIC "-//W3C//DTD SVG 1.1//EN" "http://www.w3.org/Graphics/SVG/1.1/DTD/svg11.dtd">
<svg width="100%" height="100%" viewBox="0 0 200 200" version="1.1" xmlns="http://www.w3.org/2000/svg" xmlns:xlink="http://www.w3.org/1999/xlink" xml:space="preserve" xmlns:serif="http://www.serif.com/" style="fill-rule:evenodd;clip-rule:evenodd;stroke-linejoin:round;stroke-miterlimit:2;">
    <g id="Layer1" transform="matrix(1.06233,0,0,1.06233,-6.2504,-5.96745)">
        <path d="M55.5,49C55.5,49 55.352,26.595 55.5,26C56.676,18.008 65.896,7.479 100.189,7.5C128.716,7.517 143.181,15.817 145,30C145.141,31.1 144.972,73.134 145,76C143.814,91.106 130.772,97.085 120,97C114.856,96.959 74.785,97.014 73,97C58.336,98.201 49.905,108.058 49.446,123C49.405,124.326 49.446,145.557 49.446,145.557C49.446,145.557 34.278,145.53 33,145.5C18.058,143.919 7.778,131.099 7.5,97C7.388,83.279 12.229,57.698 35,55.5C37.323,55.502 100.189,55.5 100.189,55.5L100.189,49L55.5,49ZM74.875,21.625C79.359,21.625 83,25.266 83,29.75C83,34.234 79.359,37.875 74.875,37.875C70.391,37.875 66.75,34.234 66.75,29.75C66.75,25.266 70.391,21.625 74.875,21.625Z" style="fill:rgb(55,116,168);"/>
        <g transform="matrix(-1,0,0,-1,200.557,199.5)">
            <path d="M55.5,49C55.5,49 55.352,26.595 55.5,26C56.676,18.008 65.896,7.479 100.189,7.5C128.716,7.517 143.181,15.817 145,30C145.141,31.1 144.972,73.134 145,76C143.814,91.106 130.772,97.085 120,97C114.856,96.959 74.785,97.014 73,97C58.336,98.201 49.905,108.058 49.446,123C49.405,124.326 49.446,145.557 49.446,145.557C49.446,145.557 34.278,145.53 33,145.5C18.058,143.919 7.778,131.099 7.5,97C7.388,83.279 12.229,57.698 35,55.5C37.323,55.502 100.189,55.5 100.189,55.5L100.189,49L55.5,49ZM74.875,21.625C79.359,21.625 83,25.266 83,29.75C83,34.234 79.359,37.875 74.875,37.875C70.391,37.875 66.75,34.234 66.75,29.75C66.75,25.266 70.391,21.625 74.875,21.625Z" style="fill:rgb(255,205,61);"/>
        </g>
    </g>
</svg>
